<svg xmlns="http://www.w3.org/2000/svg" width="128" height="128" viewBox="0 0 128 128">
  <!-- Head -->
  <circle cx="64" cy="70" r="35" fill="#FF9800"/>
  <!-- Ears -->
  <polygon points="40,40 35,15 50,35" fill="#FF9800"/>
  <polygon points="88,40 93,15 78,35" fill="#FF9800"/>
  <polygon points="42,38 40,25 48,36" fill="#FFB74D"/>
  <polygon points="86,38 88,25 80,36" fill="#FFB74D"/>
  <!-- Eyes -->
  <circle cx="50" cy="65" r="5" fill="#000"/>
  <circle cx="78" cy="65" r="5" fill="#000"/>
  <circle cx="51" cy="63" r="2" fill="#fff"/>
  <circle cx="79" cy="63" r="2" fill="#fff"/>
  <!-- Nose -->
  <polygon points="64,80 62,85 66,85" fill="#FF69B4"/>
  <!-- Mouth -->
  <path d="M 64 85 Q 60 88 55 87" stroke="#000" stroke-width="1" fill="none" stroke-linecap="round"/>
  <path d="M 64 85 Q 68 88 73 87" stroke="#000" stroke-width="1" fill="none" stroke-linecap="round"/>
  <!-- Whiskers -->
  <line x1="35" y1="72" x2="20" y2="70" stroke="#000" stroke-width="1"/>
  <line x1="35" y1="78" x2="20" y2="80" stroke="#000" stroke-width="1"/>
  <line x1="93" y1="72" x2="108" y2="70" stroke="#000" stroke-width="1"/>
  <line x1="93" y1="78" x2="108" y2="80" stroke="#000" stroke-width="1"/>
</svg>